<?xml version="1.0" encoding="utf-8"?>
<!-- Generator: Adobe Illustrator 23.0.3, SVG Export Plug-In . SVG Version: 6.00 Build 0)  -->
<svg version="1.1" id="svg-icon-logo-cb-large" xmlns="http://www.w3.org/2000/svg" xmlns:xlink="http://www.w3.org/1999/xlink"
	 x="0px" y="0px" viewBox="0 0 1366.75 198.1" style="enable-background:new 0 0 1366.75 198.1;" xml:space="preserve">
<style type="text/css">
	.st0{fill:#FFFFFF;}
</style>
<title>Crate and Barrel</title>
<path class="st0" d="M156.68,85.33c-2.99-18.46-22.95-49.9-60.88-49.9c-33.93,0.5-60.88,27.44-60.88,64.37
	c0,33.43,27.94,62.37,61.38,62.37c36.93,0,55.89-31.44,58.88-41.92h34.93c-5.99,31.94-38.42,77.34-93.31,77.34
	C42.41,197.6,0,152.69,0,98.8C0,45.41,42.41,0,95.81,0c52.39,0,90.82,41.42,95.81,85.33H156.68z"/>
<path class="st0" d="M264.97,84.83c-18.46,0-33.93,13.97-33.93,33.93v74.85h-34.93V57.38h33.43l1.5,13.97h0.5
	c10.48-12.47,21.46-17.46,31.94-17.46c3.99,0,7.48,0.5,8.48,1.5v29.44C269.46,85.33,268.46,84.83,264.97,84.83L264.97,84.83z"/>
<path class="st0" d="M387.22,166.66V100.8c0-32.93-21.96-47.9-58.38-47.9c-15.97,0-27.94,3.49-37.42,9.98
	c-10.98,6.99-16.47,18.96-17.96,34.93h30.44c1-4.99,2.49-10.48,6.49-13.47c4.49-3.49,11.48-5.99,18.46-5.99
	c12.47,0,23.95,6.49,23.95,16.97c0,15.47-18.96,11.48-40.42,15.97c-22.95,3.99-47.9,16.47-47.9,43.91
	c0,25.95,24.95,42.41,49.4,42.41c15.97,0,27.44-3.99,41.42-15.97c0.5,4.49,1,7.48,2,11.98h34.93
	C387.72,185.63,387.22,176.15,387.22,166.66L387.22,166.66z M354.29,136.23c0,9.48-0.5,19.96-6.49,24.95
	c-5.99,5.49-13.97,8.98-25.45,8.98c-20.96,0-22.95-13.47-22.95-16.97c0-2.99,2-10.48,7.48-13.97c5.99-3.99,14.97-6.49,27.44-9.48
	c10.48-2.49,16.47-3.99,19.96-5.99L354.29,136.23L354.29,136.23z"/>
<path class="st0" d="M440.11,194.11h-1c-27.44,0-33.43-16.97-33.43-32.93V81.34h-17.96V57.88h17.96V11.98h34.43v45.41h24.45v23.45
	h-24.45v68.36c0,12.47,3.49,17.46,15.47,17.46h10.48v26.45C446.6,194.11,440.11,194.11,440.11,194.11L440.11,194.11z"/>
<path class="st0" d="M526.44,167.66c-16.97,0-31.94-13.47-31.94-30.94v-2h96.81c0-46.41-24.95-81.84-66.87-81.84
	s-66.37,35.93-66.37,70.86c0,36.93,24.45,73.85,69.86,73.85c47.4,0,61.88-40.42,61.88-46.41h-35.93
	C548.89,160.68,539.41,167.66,526.44,167.66L526.44,167.66z M523.95,81.34c16.47,0,28.94,11.48,28.94,28.44H494.5
	C494.5,98.3,503.49,81.34,523.95,81.34z"/>
<path class="st0" d="M725.54,152.19c12.97-16.47,18.96-39.42,20.46-54.89h-29.94c0,2-9.98,29.44-9.98,29.44
	c-7.48-9.98-15.47-20.46-23.45-31.44c10.98-7.48,30.44-20.96,30.44-46.41c0-26.95-22.45-44.91-47.9-44.91
	c-28.94,0-45.91,22.95-45.91,41.92c0,21.96,17.46,39.42,19.46,42.41c-17.96,7.98-43.91,25.95-43.91,58.88
	c0,22.45,18.46,50.9,55.39,50.9c22.95,0,41.92-9.98,53.89-20.96c0,0,7.48,9.98,12.47,16.97h27.94c11.48,0,11.48,0,11.48,0
	C744.5,177.64,735.02,164.67,725.54,152.19L725.54,152.19z M666.16,31.94c7.98,0,16.97,6.49,16.97,16.47
	c0,9.48-9.48,17.96-17.96,24.95c-7.48-9.98-14.97-17.96-14.97-26.95C650.19,38.92,657.68,31.94,666.16,31.94z M650.19,167.66
	c-11.48,0-20.96-9.98-20.96-21.96c0-6.99,3.49-14.47,10.98-20.96c5.99-5.49,10.98-8.48,15.97-11.98
	c4.99,6.49,16.97,22.95,29.44,39.42C678.13,157.68,667.16,167.66,650.19,167.66L650.19,167.66z"/>
<path class="st0" d="M869.75,94.31c2-1.5,28.44-8.98,28.44-39.42c0-19.46-9.48-46.91-63.37-46.91h-75.85v185.63h97.3
	c20.96,0,48.9-18.46,48.9-49.4C905.18,104.29,871.74,95.31,869.75,94.31z M793.9,36.93h40.42c20.96,0,28.94,10.98,28.94,22.45
	c0,17.96-16.47,23.45-28.94,23.45H793.9L793.9,36.93L793.9,36.93z M834.32,164.67H793.9v-54.39h40.92
	c28.94,0,32.43,16.97,32.43,26.95C867.25,156.19,852.28,164.67,834.32,164.67z"/>
<path class="st0" d="M1030.92,166.66V100.8c0-32.93-21.96-47.9-58.38-47.9c-15.97,0-27.94,3.49-37.42,9.98
	c-10.98,6.99-16.47,18.96-17.96,34.93h30.44c1-4.99,2.49-10.48,6.49-13.47c4.49-3.49,11.48-5.99,18.46-5.99
	c12.47,0,23.95,6.49,23.95,16.97c0,15.47-18.96,11.48-40.42,15.97c-23.45,4.99-47.9,16.97-47.9,44.41
	c0,25.95,24.95,42.41,49.4,42.41c15.97,0,27.44-3.99,41.42-15.97c0.5,4.49,1,7.48,2,11.98h34.93
	C1031.42,185.63,1030.92,176.15,1030.92,166.66L1030.92,166.66z M997.99,136.23c0,9.48-0.5,19.96-6.49,24.95
	c-5.99,5.49-13.97,8.98-25.45,8.98c-20.96,0-22.95-13.47-22.95-16.97c0-2.99,2-10.48,7.48-13.97c5.99-3.99,14.97-6.49,27.44-9.48
	c10.48-2.49,16.47-3.99,19.96-5.99V136.23L997.99,136.23z"/>
<path class="st0" d="M1109.77,84.83c-18.46,0-33.93,13.97-33.93,33.93v74.85h-34.93V57.38h32.93l1.5,13.97h0.5
	c10.48-12.47,21.46-17.46,31.94-17.46c3.99,0,7.48,0.5,8.48,1.5v29.44C1114.26,85.33,1113.26,84.83,1109.77,84.83z"/>
<path class="st0" d="M1192.1,84.83c-18.46,0-33.93,13.97-33.93,33.93v74.85h-34.93V57.38h32.93l1.5,13.97h0.5
	c10.48-12.47,21.46-17.46,31.94-17.46c3.99,0,7.48,0.5,8.48,1.5v29.44C1196.59,85.33,1195.59,84.83,1192.1,84.83z"/>
<path class="st0" d="M1261.46,167.66c-16.97,0-31.94-13.47-31.94-30.94v-2h96.81c0-46.41-24.95-81.84-66.87-81.84
	c-41.92,0-66.87,35.93-66.87,70.86c0,36.93,24.45,73.85,69.86,73.85c47.4,0,61.88-40.42,61.88-46.41h-35.93
	C1283.92,160.68,1274.93,167.66,1261.46,167.66L1261.46,167.66z M1258.97,81.34c16.47,0,28.94,11.48,28.94,28.44h-58.38
	C1229.52,98.3,1238.51,81.34,1258.97,81.34z"/>
<path class="st0" d="M1331.82,7.98h34.93v185.63h-34.93C1331.82,193.61,1331.82,7.98,1331.82,7.98z"/>
</svg>
