<?xml version="1.0" encoding="utf-8"?>
<!-- Generator: Adobe Illustrator 23.0.3, SVG Export Plug-In . SVG Version: 6.00 Build 0)  -->
<svg version="1.1" id="Layer_1" xmlns="http://www.w3.org/2000/svg" xmlns:xlink="http://www.w3.org/1999/xlink" x="0px" y="0px"
	 viewBox="0 0 511 511" style="enable-background:new 0 0 511 511;" xml:space="preserve">
<style type="text/css">
	.st0{fill:#FFFFFF;}
</style>
<path class="st0" d="M503.12,103.11h-41.61c1.21-1.7,2.3-3.48,3.26-5.35c5.5-10.75,6.25-23.42,2.04-34.74l-12.61-33.89
	C450,17.81,441.17,8.71,429.99,4.17c-11.2-4.55-23.88-4.19-34.8,1l-99.78,47.39c-4.93-3.52-10.96-5.61-17.47-5.61h-44.87
	c-6.51,0-12.55,2.09-17.48,5.61l-99.78-47.4c-10.92-5.18-23.6-5.54-34.8-0.99C69.83,8.71,61,17.81,56.8,29.13L44.19,63.02
	c-4.21,11.33-3.46,23.99,2.05,34.74c0.96,1.87,2.05,3.65,3.26,5.35H7.89c-4.35,0-7.89,3.53-7.89,7.89v56.78
	c0,4.35,3.53,7.89,7.89,7.89s7.89-3.53,7.89-7.89v-48.89h54.78c0.88,0.31,1.77,0.59,2.67,0.84l66.21,18.23
	c-14.71,22.55-27.69,46.26-38.8,70.83H15.77v-9.47c0-4.35-3.53-7.88-7.89-7.88S0,194.96,0,199.31v17.35c0,4.35,3.53,7.89,7.89,7.89
	h28.12v279.21c0,4.36,3.53,7.89,7.89,7.89h423.2c4.35,0,7.89-3.53,7.89-7.89v-45.79c0-4.35-3.53-7.89-7.89-7.89
	c-4.36,0-7.89,3.53-7.89,7.89v37.91h-156.4V229.4c22.34,42.31,37.46,88.32,44.42,135.86c0.46,3.15,2.77,5.71,5.85,6.5
	c0.65,0.17,1.3,0.25,1.95,0.25c2.44,0,4.78-1.13,6.3-3.14c11.34-15.04,21.88-31.14,31.4-47.95c15.94,10.85,31.41,22.96,46.09,36.05
	c2.48,2.21,6.07,2.63,8.99,1.06c2.92-1.57,4.55-4.8,4.06-8.09c-6.3-42.95-18.04-85.19-34.67-125.38h42.01v201.87
	c0,4.36,3.53,7.89,7.89,7.89c4.36,0,7.89-3.53,7.89-7.89V224.55h28.13c4.35,0,7.88-3.53,7.88-7.89V110.99
	C511,106.63,507.47,103.11,503.12,103.11z M401.95,19.41c7.04-3.34,14.88-3.56,22.1-0.63c7.2,2.93,12.66,8.55,15.37,15.85
	l12.6,33.88c2.71,7.3,2.25,15.13-1.3,22.06c-3.54,6.92-9.63,11.88-17.13,13.94l-125.54,34.56v-37.9
	c28.22-17.28,98.57-52.92,116.07-28.2c2.51,3.55,7.43,4.4,10.99,1.88c3.56-2.52,4.4-7.44,1.88-10.99
	c-13.51-19.08-41.99-20-84.64-2.75c-17.57,7.1-33.79,15.77-44.3,21.79v-5.82c0-4.22-0.88-8.25-2.45-11.9L401.95,19.41z
	 M233.07,62.72h44.87c7.91,0,14.35,6.44,14.35,14.35v65.19c0,7.91-6.44,14.35-14.35,14.35h-44.87c-7.91,0-14.35-6.44-14.35-14.35
	V77.07C218.72,69.15,225.15,62.72,233.07,62.72z M219.81,208.77c7.54-12.53,15.75-24.68,24.59-36.39h22.19
	c8.84,11.71,17.05,23.86,24.59,36.39H219.81z M60.27,90.57c-3.55-6.93-4.01-14.76-1.3-22.06l12.61-33.89
	c2.71-7.29,8.16-12.92,15.37-15.84c7.21-2.93,15.06-2.71,22.09,0.63l96.35,45.77c-1.58,3.65-2.45,7.67-2.45,11.89v6.27
	c-10.47-6.03-27.06-14.96-45.08-22.24c-42.65-17.25-71.13-16.32-84.64,2.75c-2.52,3.55-1.68,8.48,1.88,10.99
	c3.56,2.52,8.48,1.68,10.99-1.88c17.67-24.95,89.18,11.6,116.85,28.68v37.42L77.41,104.51C69.9,102.45,63.82,97.5,60.27,90.57z
	 M206.48,156.4c3.93,7.35,10.8,12.88,19.04,15.02c-36.88,51.46-62.28,110.59-74.19,172.74c-8.38-12.24-16.21-25.07-23.38-38.32
	c-1.05-1.94-2.86-3.35-5-3.89c-2.14-0.54-4.4-0.16-6.25,1.04c-13.13,8.57-26,17.96-38.42,28.05
	c12.79-67.14,39.22-131.88,77.12-188.69L206.48,156.4z M51.79,224.55H93.8c-16.64,40.19-28.38,82.42-34.68,125.38
	c-0.48,3.28,1.14,6.51,4.06,8.09c2.92,1.57,6.51,1.15,8.99-1.06c14.68-13.1,30.16-25.2,46.1-36.05
	c9.52,16.81,20.05,32.91,31.4,47.95c1.51,2.01,3.86,3.14,6.3,3.14c0.65,0,1.31-0.08,1.95-0.25c3.08-0.79,5.39-3.35,5.85-6.5
	c6.96-47.54,22.09-93.55,44.42-135.86v266.48H51.79V224.55z M223.96,495.88V224.55h63.09v271.33H223.96z M394.29,302.99
	c-1.84-1.2-4.11-1.58-6.25-1.04c-2.14,0.54-3.95,1.95-5,3.89c-7.17,13.25-15,26.09-23.38,38.32
	c-11.91-62.16-37.3-121.28-74.19-172.74c8.24-2.13,15.12-7.67,19.04-15.02l51.08-14.06c37.89,56.82,64.32,121.56,77.11,188.7
	C420.28,320.95,407.42,311.55,394.29,302.99z M495.23,208.78h-84.85c-11.11-24.57-24.09-48.29-38.8-70.83l66.2-18.23
	c0.9-0.25,1.79-0.53,2.67-0.84h54.78V208.78z"/>
</svg>
