<?xml version="1.0" encoding="utf-8"?>
<!-- Generator: Adobe Illustrator 23.0.3, SVG Export Plug-In . SVG Version: 6.00 Build 0)  -->
<svg version="1.1" id="Layer_1" xmlns="http://www.w3.org/2000/svg" xmlns:xlink="http://www.w3.org/1999/xlink" x="0px" y="0px"
	 viewBox="0 0 88.16 45.66" style="enable-background:new 0 0 88.16 45.66;" xml:space="preserve">
<style type="text/css">
	.st0{fill:#FFFFFF;}
	.st1{clip-path:url(#SVGID_2_);fill:#FFFFFF;}
</style>
<path class="st0" d="M2.17,2.17h83.81V36.2H2.17V2.17z M0,38.37h88.16V0H0V38.37z"/>
<polygon class="st0" points="15.74,21 15.74,15.15 9.84,15.15 9.84,21 6.63,21 6.63,6.43 9.84,6.43 9.84,12.2 15.74,12.2 
	15.74,6.43 18.95,6.43 18.95,21 "/>
<polygon class="st0" points="23.69,21 23.69,6.43 34.68,6.43 34.68,9.28 26.87,9.28 26.87,12.24 33.74,12.24 33.74,15.09 
	26.87,15.09 26.87,18.15 34.78,18.15 34.78,21 "/>
<path class="st0" d="M49.72,21l-1.33-3.27h-6.16L40.9,21h-3.27l6.24-14.67h2.96L53.07,21H49.72z M45.31,10.18l-1.94,4.72h3.87
	L45.31,10.18z"/>
<polygon class="st0" points="61.28,9.39 61.28,21 58.08,21 58.08,9.39 53.65,9.39 53.65,6.43 65.71,6.43 65.71,9.39 "/>
<polygon class="st0" points="78.11,21 78.11,15.15 72.2,15.15 72.2,21 69,21 69,6.43 72.2,6.43 72.2,12.2 78.11,12.2 78.11,6.43 
	81.32,6.43 81.32,21 "/>
<g>
	<defs>
		<rect id="SVGID_1_" width="88.16" height="45.66"/>
	</defs>
	<clipPath id="SVGID_2_">
		<use xlink:href="#SVGID_1_"  style="overflow:visible;"/>
	</clipPath>
	<path class="st1" d="M10.1,32.37c-2.09,0-3.64-1.61-3.64-3.65V28.7c0-2.02,1.52-3.67,3.7-3.67c1.34,0,2.14,0.45,2.8,1.1l-0.99,1.15
		c-0.55-0.5-1.11-0.8-1.82-0.8c-1.2,0-2.06,0.99-2.06,2.21v0.02c0,1.22,0.84,2.23,2.06,2.23c0.81,0,1.31-0.32,1.87-0.83l0.99,1.01
		C12.28,31.88,11.47,32.37,10.1,32.37"/>
	<polygon class="st1" points="16.95,32.25 16.95,25.15 22.3,25.15 22.3,26.54 18.5,26.54 18.5,27.98 21.85,27.98 21.85,29.37 
		18.5,29.37 18.5,30.86 22.36,30.86 22.36,32.25 	"/>
	<path class="st1" d="M31.35,32.25l-1.52-2.27h-1.23v2.27h-1.56v-7.1h3.25c1.67,0,2.68,0.88,2.68,2.34v0.02
		c0,1.15-0.62,1.87-1.52,2.2l1.74,2.54H31.35z M31.39,27.57c0-0.67-0.47-1.01-1.23-1.01h-1.55v2.04h1.58c0.76,0,1.2-0.41,1.2-1.01
		V27.57z"/>
	<path class="st1" d="M42.56,32.25l-0.65-1.59h-3l-0.65,1.59h-1.59l3.04-7.15h1.44l3.04,7.15H42.56z M40.4,26.97l-0.94,2.3h1.89
		L40.4,26.97z"/>
	<polygon class="st1" points="53.52,32.25 53.52,27.61 51.52,30.65 51.48,30.65 49.51,27.64 49.51,32.25 47.97,32.25 47.97,25.15 
		49.66,25.15 51.52,28.15 53.39,25.15 55.08,25.15 55.08,32.25 	"/>
	<rect x="60.15" y="25.15" class="st1" width="1.56" height="7.1"/>
	<path class="st1" d="M69.5,32.37c-2.09,0-3.64-1.61-3.64-3.65V28.7c0-2.02,1.52-3.67,3.7-3.67c1.34,0,2.14,0.45,2.8,1.1l-0.99,1.15
		c-0.55-0.5-1.11-0.8-1.82-0.8c-1.2,0-2.06,0.99-2.06,2.21v0.02c0,1.22,0.84,2.23,2.06,2.23c0.81,0,1.31-0.32,1.87-0.83l0.99,1.01
		C71.68,31.88,70.87,32.37,69.5,32.37"/>
	<path class="st1" d="M79.08,32.35c-1.08,0-2.16-0.38-3.01-1.14l0.92-1.11c0.64,0.53,1.31,0.86,2.12,0.86
		c0.64,0,1.02-0.25,1.02-0.67v-0.02c0-0.4-0.24-0.6-1.43-0.9c-1.43-0.36-2.35-0.76-2.35-2.17v-0.02c0-1.29,1.04-2.14,2.49-2.14
		c1.03,0,1.92,0.32,2.64,0.9l-0.81,1.18c-0.63-0.44-1.25-0.7-1.85-0.7s-0.91,0.27-0.91,0.62v0.02c0,0.47,0.3,0.62,1.53,0.93
		c1.44,0.38,2.25,0.89,2.25,2.13v0.02C81.69,31.56,80.61,32.35,79.08,32.35"/>
	<path class="st1" d="M22.08,43.36c0.86,0.21,1.3,0.52,1.3,1.19c0,0.77-0.6,1.22-1.45,1.22c-0.62,0-1.21-0.22-1.69-0.65l0.43-0.51
		c0.39,0.34,0.78,0.53,1.28,0.53c0.44,0,0.72-0.2,0.72-0.52c0-0.3-0.16-0.45-0.92-0.63c-0.86-0.21-1.35-0.46-1.35-1.22
		c0-0.71,0.58-1.18,1.39-1.18c0.59,0,1.06,0.18,1.47,0.51l-0.38,0.54c-0.36-0.27-0.73-0.42-1.1-0.42c-0.42,0-0.66,0.22-0.66,0.49
		C21.12,43.03,21.31,43.17,22.08,43.36"/>
	<rect x="26.01" y="41.66" class="st1" width="0.71" height="4.06"/>
	<polygon class="st1" points="32.61,41.65 33.31,41.65 33.31,45.71 32.71,45.71 30.48,42.83 30.48,45.71 29.78,45.71 29.78,41.65 
		30.44,41.65 32.61,44.46 	"/>
	<path class="st1" d="M37.63,45.78c-1.18,0-2.06-0.92-2.06-2.09c0-1.16,0.86-2.11,2.09-2.11c0.75,0,1.2,0.26,1.59,0.63l-0.46,0.53
		c-0.32-0.3-0.67-0.51-1.14-0.51c-0.78,0-1.34,0.64-1.34,1.44s0.56,1.45,1.34,1.45c0.5,0,0.82-0.2,1.17-0.53l0.46,0.46
		C38.85,45.5,38.39,45.78,37.63,45.78"/>
	<polygon class="st1" points="44.66,42.29 42.36,42.29 42.36,43.35 44.4,43.35 44.4,43.99 42.36,43.99 42.36,45.08 44.69,45.08 
		44.69,45.71 41.65,45.71 41.65,41.66 44.66,41.66 	"/>
	<polygon class="st1" points="51.47,41.63 51.97,41.63 51.97,45.71 51.26,45.71 51.26,42.35 50.53,42.55 50.38,41.97 	"/>
	<path class="st1" d="M55.77,45.78c-0.56,0-0.96-0.2-1.3-0.49l0.39-0.54c0.31,0.26,0.58,0.38,0.93,0.38c0.6,0,0.96-0.53,0.98-1.28
		c-0.2,0.24-0.52,0.43-0.95,0.43c-0.86,0-1.44-0.5-1.44-1.29c0-0.8,0.61-1.41,1.51-1.41c0.51,0,0.84,0.15,1.12,0.43
		c0.3,0.3,0.49,0.75,0.49,1.55C57.51,44.88,56.86,45.78,55.77,45.78 M55.89,42.2c-0.5,0-0.81,0.34-0.81,0.76
		c0,0.43,0.33,0.73,0.83,0.73c0.52,0,0.82-0.34,0.82-0.74C56.74,42.52,56.41,42.2,55.89,42.2"/>
	<path class="st1" d="M62.3,41.63v2.59h0.58v0.59H62.3v0.91h-0.68V44.8h-2.05l-0.13-0.51l2.25-2.67H62.3z M61.62,42.61l-1.33,1.61
		h1.33V42.61z"/>
	<path class="st1" d="M66.63,45.77c-0.89,0-1.55-0.46-1.55-1.16c0-0.5,0.27-0.81,0.73-1c-0.34-0.18-0.59-0.45-0.59-0.91
		c0-0.63,0.6-1.1,1.41-1.1s1.41,0.48,1.41,1.1c0,0.46-0.25,0.73-0.59,0.91c0.44,0.2,0.73,0.49,0.73,0.98
		C68.17,45.32,67.51,45.77,66.63,45.77 M66.63,43.94c-0.48,0-0.85,0.24-0.85,0.62c0,0.34,0.32,0.61,0.85,0.61s0.85-0.27,0.85-0.61
		C67.48,44.18,67.11,43.94,66.63,43.94 M66.63,42.19c-0.43,0-0.73,0.26-0.73,0.57c0,0.36,0.31,0.61,0.73,0.61s0.73-0.25,0.73-0.6
		C67.35,42.45,67.06,42.19,66.63,42.19"/>
</g>
</svg>
