<?xml version="1.0" encoding="utf-8"?>
<!-- Generator: Adobe Illustrator 23.0.3, SVG Export Plug-In . SVG Version: 6.00 Build 0)  -->
<svg version="1.1" id="Capa_1" xmlns="http://www.w3.org/2000/svg" xmlns:xlink="http://www.w3.org/1999/xlink" x="0px" y="0px"
	 viewBox="0 0 631.77 527.84" style="enable-background:new 0 0 631.77 527.84;" xml:space="preserve">
<style type="text/css">
	.st0{fill:#FFFFFF;}
	.st1{fill:none;stroke:#FFFFFF;stroke-width:18;stroke-linecap:round;stroke-linejoin:round;stroke-miterlimit:10;}
</style>
<path class="st0" d="M379.67,140.43c-1.92,0-47.24,0.27-71.1,24.14l-47.96,47.96L31.48,155.25c-0.06-0.01-0.11-0.02-0.17-0.03
	c-0.15-0.03-0.29-0.06-0.44-0.09c-0.11-0.02-0.22-0.04-0.33-0.05c-0.13-0.02-0.27-0.03-0.4-0.04c-0.12-0.01-0.25-0.01-0.37-0.02
	c-0.12,0-0.25,0-0.38,0c-0.12,0-0.25,0.01-0.38,0.02c-0.13,0.01-0.26,0.02-0.39,0.04c-0.11,0.01-0.23,0.03-0.34,0.05
	c-0.14,0.02-0.29,0.06-0.43,0.09c-0.09,0.02-0.18,0.04-0.27,0.07c-0.16,0.04-0.32,0.1-0.48,0.15c-0.07,0.02-0.14,0.05-0.21,0.07
	c-0.17,0.06-0.33,0.13-0.5,0.21c-0.06,0.03-0.12,0.05-0.18,0.08c-0.16,0.08-0.32,0.17-0.48,0.26c-0.06,0.04-0.12,0.07-0.18,0.11
	c-0.14,0.09-0.28,0.18-0.42,0.28c-0.08,0.05-0.15,0.11-0.23,0.17c-0.11,0.09-0.23,0.18-0.33,0.27c-0.1,0.08-0.19,0.17-0.28,0.25
	c-0.05,0.05-0.1,0.09-0.15,0.14L2.26,179.16c-0.04,0.04-0.07,0.08-0.1,0.12c-0.1,0.1-0.19,0.21-0.29,0.32
	c-0.09,0.1-0.17,0.2-0.25,0.31c-0.03,0.04-0.07,0.09-0.11,0.13c-0.04,0.05-0.07,0.1-0.1,0.16c-0.08,0.12-0.17,0.24-0.24,0.37
	c-0.06,0.1-0.12,0.19-0.17,0.29c-0.07,0.12-0.14,0.25-0.2,0.38c-0.05,0.11-0.1,0.21-0.15,0.32c-0.05,0.12-0.1,0.24-0.15,0.36
	c-0.04,0.12-0.09,0.24-0.12,0.36c-0.04,0.12-0.07,0.23-0.1,0.35c-0.03,0.13-0.07,0.26-0.1,0.39c-0.02,0.11-0.04,0.22-0.06,0.34
	c-0.02,0.13-0.04,0.27-0.06,0.4c-0.01,0.11-0.02,0.23-0.03,0.34C0.01,184.21,0,184.34,0,184.47c0,0.12,0,0.24,0,0.36
	c0,0.12,0.01,0.25,0.02,0.37c0.01,0.13,0.02,0.26,0.04,0.38c0.01,0.12,0.03,0.23,0.05,0.34c0.02,0.13,0.05,0.27,0.08,0.4
	c0.02,0.11,0.05,0.21,0.08,0.32c0.04,0.13,0.08,0.27,0.12,0.4c0.03,0.1,0.07,0.21,0.11,0.31c0.05,0.13,0.1,0.25,0.15,0.38
	c0.05,0.11,0.1,0.21,0.15,0.32c0.06,0.12,0.12,0.23,0.18,0.34c0.06,0.11,0.13,0.22,0.2,0.33c0.06,0.1,0.13,0.2,0.2,0.3
	c0.08,0.12,0.17,0.23,0.25,0.34c0.07,0.09,0.14,0.18,0.21,0.26c0.1,0.11,0.19,0.22,0.3,0.33c0.04,0.04,0.08,0.09,0.12,0.14
	c0.04,0.04,0.08,0.07,0.12,0.11c0.1,0.09,0.2,0.18,0.3,0.27c0.11,0.09,0.22,0.18,0.33,0.27c0.04,0.03,0.08,0.07,0.12,0.1
	l160.52,118.64l-77.79,77.79L46.64,374.2c-0.08-0.03-0.15-0.04-0.23-0.06c-0.14-0.04-0.29-0.09-0.44-0.12
	c-0.13-0.03-0.25-0.05-0.38-0.08c-0.12-0.02-0.23-0.04-0.35-0.06c-0.15-0.02-0.29-0.03-0.44-0.05c-0.1-0.01-0.2-0.02-0.3-0.02
	c-0.15-0.01-0.31-0.01-0.46,0c-0.1,0-0.19,0-0.29,0.01c-0.15,0.01-0.3,0.02-0.45,0.04c-0.1,0.01-0.2,0.02-0.3,0.04
	c-0.15,0.02-0.29,0.05-0.44,0.08c-0.1,0.02-0.2,0.04-0.3,0.07c-0.15,0.04-0.29,0.08-0.43,0.13c-0.1,0.03-0.19,0.06-0.29,0.1
	c-0.15,0.06-0.3,0.12-0.45,0.19c-0.08,0.04-0.16,0.07-0.24,0.11c-0.17,0.08-0.33,0.17-0.5,0.27c-0.04,0.03-0.09,0.05-0.14,0.07
	l-0.1,0.06c-0.01,0.01-0.03,0.02-0.04,0.02L3.82,396.75c-0.02,0.01-0.04,0.02-0.06,0.03l-0.01,0.01c-0.02,0.01-0.04,0.03-0.06,0.04
	c-0.2,0.12-0.39,0.25-0.58,0.39c-0.06,0.04-0.11,0.09-0.17,0.14c-0.14,0.11-0.28,0.22-0.41,0.34c-0.09,0.08-0.17,0.17-0.26,0.25
	c-0.09,0.09-0.19,0.18-0.27,0.28c-0.11,0.13-0.22,0.26-0.33,0.39c-0.05,0.06-0.1,0.12-0.15,0.19c-0.14,0.19-0.27,0.38-0.39,0.58
	c-0.01,0.02-0.03,0.04-0.04,0.06c0,0,0,0,0,0.01c-0.26,0.44-0.48,0.91-0.65,1.39c-0.07,0.21-0.13,0.42-0.19,0.63
	c-0.01,0.03-0.02,0.06-0.03,0.09c-0.05,0.19-0.08,0.39-0.12,0.58c-0.01,0.05-0.02,0.1-0.03,0.16c-0.03,0.16-0.04,0.33-0.05,0.49
	c-0.01,0.09-0.02,0.17-0.02,0.26c-0.01,0.12,0,0.25,0,0.37c0,0.13-0.01,0.26,0,0.39c0,0.08,0.01,0.17,0.02,0.25
	c0.01,0.17,0.03,0.34,0.05,0.51c0.01,0.05,0.02,0.09,0.03,0.14c0.03,0.2,0.07,0.4,0.12,0.6c0,0.01,0.01,0.02,0.01,0.03
	c0.09,0.36,0.22,0.71,0.36,1.06c0.04,0.1,0.08,0.21,0.13,0.31c0.01,0.03,0.03,0.05,0.04,0.08c0.1,0.21,0.21,0.41,0.33,0.61
	c0,0,0,0.01,0.01,0.01c0.01,0.02,0.02,0.03,0.03,0.04c0.15,0.25,0.32,0.49,0.5,0.72c0.05,0.07,0.11,0.14,0.16,0.2
	c0.15,0.18,0.3,0.35,0.47,0.51c0.06,0.06,0.12,0.12,0.18,0.18c0.21,0.2,0.43,0.39,0.67,0.57c0.08,0.06,0.16,0.1,0.24,0.16
	c0.14,0.09,0.27,0.19,0.41,0.27l64.43,38.66l-7.58,7.58c-3.02,3.02-3.02,7.92,0,10.94c1.51,1.51,3.49,2.27,5.47,2.27
	s3.96-0.76,5.47-2.27l7.58-7.58l38.62,64.36c0.01,0.02,0.02,0.04,0.03,0.05l0.01,0.01c0,0.01,0.01,0.01,0.01,0.02
	c0.16,0.26,0.33,0.51,0.52,0.74c0.05,0.06,0.1,0.12,0.15,0.19c0.15,0.18,0.31,0.36,0.48,0.53c0.06,0.06,0.11,0.12,0.17,0.17
	c0.21,0.2,0.44,0.39,0.68,0.57c0.07,0.05,0.14,0.1,0.22,0.15c0.14,0.1,0.28,0.2,0.42,0.28c0.03,0.02,0.07,0.03,0.1,0.05
	c0.19,0.11,0.38,0.2,0.58,0.3c0.12,0.06,0.24,0.12,0.36,0.17c0.17,0.07,0.35,0.12,0.52,0.18c0.15,0.05,0.3,0.11,0.45,0.15
	c0.15,0.04,0.31,0.06,0.46,0.09c0.17,0.03,0.35,0.08,0.52,0.1c0.21,0.03,0.42,0.03,0.63,0.04c0.12,0.01,0.23,0.02,0.34,0.02
	c0,0,0.01,0,0.01,0s0.01,0,0.01,0c0.12,0,0.23-0.02,0.34-0.02c0.21-0.01,0.43-0.02,0.63-0.04c0.18-0.02,0.35-0.07,0.52-0.1
	c0.15-0.03,0.31-0.05,0.46-0.09c0.15-0.04,0.3-0.1,0.45-0.15c0.17-0.06,0.35-0.11,0.52-0.18c0.12-0.05,0.25-0.12,0.37-0.17
	c0.19-0.09,0.38-0.18,0.57-0.29c0.03-0.02,0.07-0.03,0.1-0.05c0.15-0.09,0.3-0.2,0.44-0.3c0.07-0.05,0.13-0.08,0.2-0.13
	c0.24-0.18,0.47-0.37,0.68-0.58c0.06-0.05,0.11-0.11,0.16-0.16c0.17-0.17,0.33-0.35,0.49-0.54c0.05-0.06,0.1-0.12,0.15-0.18
	c0.19-0.24,0.36-0.48,0.52-0.74c0.01-0.01,0.01-0.02,0.02-0.02l0.01-0.02c0.01-0.02,0.02-0.03,0.03-0.05l21.84-36.4
	c0.05-0.08,0.09-0.16,0.13-0.24c0.07-0.12,0.13-0.24,0.19-0.36c0.06-0.12,0.11-0.24,0.16-0.36c0.04-0.11,0.09-0.21,0.13-0.32
	c0.05-0.13,0.09-0.27,0.13-0.4c0.03-0.11,0.07-0.21,0.1-0.32c0.04-0.14,0.06-0.27,0.09-0.41c0.02-0.11,0.05-0.22,0.06-0.34
	c0.02-0.13,0.04-0.26,0.05-0.39c0.01-0.12,0.03-0.25,0.03-0.37c0.01-0.12,0.01-0.24,0.01-0.36c0-0.13,0-0.26,0-0.4
	c-0.01-0.11-0.01-0.23-0.02-0.34c-0.01-0.14-0.02-0.27-0.04-0.41c-0.02-0.12-0.04-0.24-0.06-0.36c-0.02-0.13-0.05-0.26-0.08-0.38
	c-0.03-0.13-0.07-0.26-0.11-0.4c-0.02-0.09-0.04-0.18-0.07-0.27l-13.08-39.22L363.23,219.3c0.01-0.01,0.02-0.02,0.04-0.03
	c23.86-23.87,24.14-69.18,24.14-71.1C387.41,143.9,383.94,140.43,379.67,140.43z M19.55,183.75l12.43-12.43l215.88,53.96
	l-73.14,73.15L19.55,183.75z M352.35,208.3c-0.01,0.01-0.02,0.02-0.03,0.02L126.24,434.42c-0.02,0.03-0.05,0.05-0.07,0.08
	c-0.11,0.11-0.21,0.22-0.3,0.34c-0.07,0.08-0.15,0.17-0.22,0.26c-0.08,0.1-0.15,0.2-0.22,0.3c-0.08,0.11-0.16,0.22-0.24,0.34
	c-0.05,0.08-0.1,0.16-0.14,0.24c-0.08,0.14-0.16,0.28-0.24,0.42c-0.04,0.07-0.07,0.14-0.1,0.21c-0.07,0.15-0.14,0.31-0.21,0.46
	c-0.03,0.08-0.06,0.16-0.09,0.24c-0.05,0.15-0.11,0.3-0.15,0.45c-0.03,0.11-0.05,0.22-0.08,0.33c-0.03,0.13-0.06,0.25-0.09,0.38
	c-0.02,0.14-0.04,0.28-0.06,0.42c-0.01,0.1-0.03,0.2-0.04,0.31c-0.01,0.15-0.02,0.31-0.02,0.46c0,0.09-0.01,0.19-0.01,0.28
	c0,0.15,0.01,0.3,0.02,0.44c0.01,0.11,0.01,0.21,0.02,0.32c0.01,0.13,0.03,0.25,0.05,0.38c0.02,0.13,0.04,0.26,0.07,0.39
	c0.02,0.1,0.05,0.2,0.07,0.31c0.04,0.15,0.08,0.3,0.13,0.46c0.01,0.03,0.02,0.07,0.03,0.1l13.46,40.38l-13.41,22.36l-34.02-56.7
	l32.2-32.2c3.02-3.02,3.02-7.92,0-10.94c-3.02-3.02-7.92-3.02-10.94,0l-32.19,32.19l-56.69-34.02L45.12,390l40.38,13.46
	c0.02,0.01,0.05,0.01,0.08,0.02c0.34,0.11,0.69,0.2,1.05,0.26c0.09,0.02,0.17,0.02,0.26,0.04c0.32,0.04,0.64,0.07,0.96,0.08
	c0.04,0,0.07,0.01,0.11,0.01c0.04,0,0.08-0.01,0.12-0.01c0.31-0.01,0.61-0.03,0.92-0.07c0.1-0.01,0.19-0.02,0.29-0.04
	c0.33-0.06,0.65-0.13,0.98-0.23c0.07-0.02,0.13-0.05,0.19-0.07c0.29-0.1,0.58-0.22,0.86-0.35c0.05-0.02,0.11-0.05,0.16-0.07
	c0.3-0.15,0.6-0.33,0.88-0.53c0.07-0.05,0.15-0.11,0.22-0.16c0.22-0.17,0.43-0.34,0.64-0.53c0.06-0.06,0.13-0.11,0.19-0.17
	c0.01-0.01,0.02-0.02,0.03-0.02l226.09-226.09c13.98-13.99,39.06-18,51.98-19.15C370.35,169.26,366.36,194.26,352.35,208.3z"/>
<g>
	<g>
		<path class="st0" d="M372.78,497.69c-0.01-0.13-0.02-0.25-0.03-0.38c-0.01-0.12-0.03-0.23-0.05-0.35
			c-0.02-0.15-0.05-0.29-0.09-0.44c-0.01-0.06-0.02-0.11-0.03-0.17l-49.59-198.37c-1.04-4.14-5.24-6.66-9.38-5.63
			c-4.14,1.04-6.67,5.23-5.63,9.38l48.52,194.12l-12.43,12.43L244.04,372.93c-2.54-3.44-7.38-4.16-10.82-1.62
			c-3.44,2.54-4.16,7.38-1.62,10.82L336.98,524.7c0.03,0.04,0.06,0.07,0.09,0.1c0.12,0.16,0.25,0.31,0.38,0.46
			c0.07,0.08,0.14,0.16,0.21,0.23c0.02,0.03,0.05,0.05,0.07,0.08c0.11,0.11,0.23,0.21,0.35,0.31c0.07,0.07,0.14,0.14,0.22,0.2
			c0.22,0.18,0.44,0.34,0.67,0.49c0.06,0.04,0.13,0.08,0.19,0.11c0.18,0.11,0.36,0.21,0.54,0.31c0.08,0.04,0.17,0.08,0.25,0.12
			c0.17,0.08,0.35,0.16,0.52,0.22c0.09,0.03,0.18,0.06,0.27,0.1c0.18,0.06,0.36,0.11,0.54,0.16c0.09,0.02,0.18,0.05,0.27,0.07
			c0.19,0.04,0.38,0.07,0.58,0.1c0.08,0.01,0.16,0.03,0.24,0.04c0.27,0.03,0.54,0.04,0.8,0.05c0.01,0,0.02,0,0.02,0
			c0.01,0,0.02,0,0.03,0c0.34,0,0.69-0.03,1.03-0.08c0.08-0.01,0.16-0.02,0.24-0.03c0.34-0.06,0.68-0.14,1.01-0.24
			c0.06-0.02,0.13-0.05,0.19-0.07c0.32-0.11,0.64-0.24,0.95-0.39c0.03-0.02,0.06-0.03,0.09-0.04c0.33-0.17,0.65-0.37,0.96-0.6
			c0.03-0.02,0.06-0.04,0.09-0.06c0.04-0.03,0.08-0.07,0.13-0.1c0.11-0.08,0.22-0.17,0.32-0.26c0.1-0.09,0.2-0.18,0.3-0.27
			c0.04-0.04,0.08-0.07,0.12-0.11l21.87-21.87c0.04-0.04,0.08-0.09,0.12-0.14c0.1-0.1,0.19-0.2,0.28-0.31
			c0.08-0.1,0.16-0.2,0.24-0.3c0.07-0.09,0.14-0.18,0.2-0.28c0.08-0.12,0.16-0.24,0.24-0.36c0.05-0.08,0.1-0.17,0.15-0.26
			c0.08-0.13,0.15-0.27,0.22-0.4c0.04-0.09,0.08-0.17,0.12-0.26c0.06-0.14,0.12-0.27,0.17-0.42c0.04-0.1,0.07-0.2,0.11-0.3
			c0.04-0.13,0.09-0.26,0.12-0.39c0.03-0.12,0.06-0.24,0.09-0.36c0.03-0.12,0.05-0.23,0.07-0.35c0.02-0.14,0.04-0.27,0.06-0.41
			c0.01-0.11,0.02-0.22,0.03-0.32c0.01-0.14,0.02-0.28,0.02-0.42c0-0.11,0.01-0.22,0-0.33C372.8,497.95,372.79,497.82,372.78,497.69
			z"/>
	</g>
</g>
<path class="st1" d="M354.7,371.23l33.03,28.2l184.12-148.15c52.41-52.42,52.8-137.02,0.86-188.97
	C520.78,10.38,450.5,3.43,398.08,55.84"/>
<path class="st1" d="M398.08,55.84C346.14,3.89,268.92,11.12,216.5,63.54c-28.83,28.82-41.92,67.38-39.23,104.89"/>
</svg>
