<?xml version="1.0" encoding="utf-8"?>
<!-- Generator: Adobe Illustrator 23.0.3, SVG Export Plug-In . SVG Version: 6.00 Build 0)  -->
<svg version="1.1" id="Layer_2" xmlns="http://www.w3.org/2000/svg" xmlns:xlink="http://www.w3.org/1999/xlink" x="0px" y="0px"
	 viewBox="0 0 250 344" style="enable-background:new 0 0 250 344;" xml:space="preserve">
<style type="text/css">
	.st0{fill:#D41F28;}
	.st1{opacity:0.24;fill:none;stroke:#FFFFFF;stroke-width:4;stroke-miterlimit:10;}
	.st2{fill:none;stroke:#065AA0;stroke-width:4;stroke-linecap:round;stroke-miterlimit:10;}
	.st3{fill:none;stroke:#0F90AD;stroke-width:5;stroke-linecap:round;stroke-miterlimit:10;}
	.st4{fill:none;stroke:#08A443;stroke-width:5;stroke-linecap:round;stroke-miterlimit:10;}
	.st5{fill:none;stroke:#FFE100;stroke-width:4;stroke-linecap:round;stroke-miterlimit:10;}
	.st6{fill:#1660B1;}
	.st7{fill:none;stroke:#FDE364;stroke-width:4;stroke-linecap:round;stroke-miterlimit:10;}
	.st8{fill:#FFFFFF;}
</style>
<rect x="8.02" y="42.31" class="st0" width="229.95" height="226.05"/>
<path class="st1" d="M174.27,168.48c0,0,2.76,27.69-1.2,37.74c-4.18,10.6-10.87,17.49-17.44,20.84c-5.78,2.95-36.6,3.72-43.3-0.37"
	/>
<path class="st2" d="M162.19,103.63c1.49,3.72,11.91,11.91,10.79,37.02"/>
<path class="st3" d="M58.94,145.19c0,0-8.93-5.77-9.12-13.4c-0.19-7.63-2.79-11.35,1.3-15.44s13.21-10.05,15.63-17.86
	s3.35-20.09,10.98-24s12.09-11.16,19.16-10.23s11.35,1.3,16.37-2.6s3.53-5.95,13.77-4.09c10.23,1.86,13.77,5.58,16.74,4.84
	c2.98-0.74,9.3,2.98,13.58,3.91c4.28,0.93,8.37-2.42,12.09,3.53c3.72,5.95,19.16,13.4,18.98,24.37c-0.19,10.98-0.74,31.81-6.14,37.4
	c-5.4,5.58-9.22,10.98-9.22,10.98"/>
<path class="st4" d="M73.08,162.5c0,0-0.37,0.19-4.84-3.53c-4.47-3.72-6.51-3.53-6.51,0c0,3.53,3.16,13.58,2.98,18.98
	c-0.19,5.4,5.58,22.33,8.37,18.23c2.79-4.09,3.16-8,3.16-8s1.3,1.49,2.6,5.21c1.3,3.72,10.6,10.05,12.09,14.51s6.74,8.47,10.23,9.86
	c3.75,1.49,9.12,5.02,11.16,8.93c2.05,3.91,6.83,12.84,6.3,13.95c-0.53,1.12,1.14,6.7-1.65,8.56"/>
<path class="st5" d="M133.73,159.57c0,0,3.53-3.35,6.7-2.05s4.28,1.86,8,7.81c3.72,5.95,9.49,9.12,16.19,8.19
	c6.7-0.93,13.77-7.07,12.84-13.21c-0.93-6.14-0.74-18.6-10.6-18.42s-22.88-2.3-22.33,8.19l-0.19,7.64"/>
<path class="st6" d="M97.26,158.59c0,0,1.3-12.28,11.53-12.65c10.23-0.37,18.23,0.37,19.72,3.16c1.49,2.79,8.19,12.28,2.98,18.23
	c-5.21,5.95-5.95,11.16-14.7,10.79S98.75,169.38,97.26,158.59z"/>
<path class="st7" d="M74.13,158.82c0,0,8.19-3.02,14.7-1.05c6.51,1.98,8.56,2.16,9.86,4.77c1.3,2.6,6.7,17.67,18.6,16.19
	s17.67-11.25,15.81-21.62c-1.86-10.38-11.35-12.42-19.91-11.87c-8.56,0.56-13.21,4.28-13.95,6.14s-3.63,8.51-3.63,8.51"/>
<g>
	<path class="st8" d="M15,17.94h1.1v8.19h-1.18v-6.37l-2.52,3.16h-0.22l-2.55-3.16v6.37H8.47v-8.19h1.11l2.72,3.36L15,17.94z"/>
	<path class="st8" d="M23.28,17.94h4.64v1.04h-3.47v2.5h3.35v1.05h-3.35v2.54h3.58v1.04h-4.75V17.94z"/>
	<path class="st8" d="M34.74,26.12v-8.19h2.05c0.83,0,1.49,0.21,1.97,0.62s0.73,0.96,0.73,1.66c0,0.48-0.12,0.89-0.36,1.24
		s-0.58,0.61-1.03,0.78c0.26,0.17,0.52,0.41,0.77,0.7s0.6,0.81,1.05,1.55c0.29,0.46,0.51,0.81,0.69,1.05l0.43,0.59h-1.39l-0.36-0.54
		c-0.01-0.02-0.04-0.05-0.07-0.1L39,25.16l-0.36-0.6l-0.39-0.64c-0.24-0.34-0.46-0.6-0.67-0.8c-0.2-0.2-0.38-0.34-0.55-0.43
		c-0.16-0.09-0.44-0.13-0.82-0.13h-0.31v3.56H34.74z M36.27,18.93h-0.35v2.58h0.45c0.59,0,1-0.05,1.22-0.15s0.39-0.25,0.52-0.46
		s0.18-0.44,0.18-0.7c0-0.26-0.07-0.49-0.21-0.7s-0.33-0.36-0.58-0.44S36.84,18.93,36.27,18.93z"/>
	<path class="st8" d="M54.43,24.23v1.29c-0.86,0.47-1.85,0.7-2.98,0.7c-0.91,0-1.69-0.18-2.33-0.55s-1.14-0.87-1.51-1.52
		s-0.56-1.34-0.56-2.09c0-1.19,0.42-2.19,1.27-3.01s1.9-1.22,3.14-1.22c0.86,0,1.81,0.22,2.87,0.67v1.26
		c-0.96-0.55-1.89-0.82-2.81-0.82c-0.94,0-1.72,0.3-2.33,0.89s-0.93,1.33-0.93,2.22c0,0.9,0.3,1.64,0.91,2.21s1.39,0.87,2.34,0.87
		C52.52,25.14,53.49,24.83,54.43,24.23z"/>
	<path class="st8" d="M67.07,17.94h1.17v8.19h-1.17v-3.56h-4.6v3.56H61.3v-8.19h1.17v3.54h4.6V17.94z"/>
	<path class="st8" d="M78.09,17.89h0.82l3.67,8.23h-1.2l-1.09-2.43H76.8l-1.02,2.43h-1.2L78.09,17.89z M79.81,22.65l-1.32-2.96
		l-1.22,2.96H79.81z"/>
	<path class="st8" d="M95.4,17.94h1.11v8.19h-1.01l-5.47-6.3v6.3h-1.1v-8.19h0.95l5.52,6.36V17.94z"/>
	<path class="st8" d="M103,17.93h6.84v1.04h-2.85v7.15h-1.18v-7.15H103V17.93z"/>
	<path class="st8" d="M118.39,22.69l-0.89-0.54c-0.56-0.34-0.96-0.68-1.19-1.01s-0.35-0.71-0.35-1.14c0-0.64,0.22-1.17,0.67-1.57
		s1.03-0.6,1.74-0.6c0.68,0,1.31,0.19,1.88,0.58v1.33c-0.59-0.57-1.22-0.85-1.9-0.85c-0.38,0-0.7,0.09-0.94,0.27
		s-0.37,0.4-0.37,0.68c0,0.25,0.09,0.48,0.27,0.69s0.47,0.44,0.87,0.67l0.9,0.53c1,0.6,1.5,1.36,1.5,2.28c0,0.66-0.22,1.19-0.66,1.6
		s-1.01,0.62-1.71,0.62c-0.81,0-1.54-0.25-2.21-0.75v-1.49c0.63,0.8,1.37,1.2,2.2,1.2c0.37,0,0.67-0.1,0.92-0.31
		c0.24-0.2,0.37-0.46,0.37-0.77C119.47,23.61,119.11,23.14,118.39,22.69z"/>
	<path class="st8" d="M136.04,17.94h4.64v1.04h-3.47v2.5h3.35v1.05h-3.35v2.54h3.58v1.04h-4.75V17.94z"/>
	<path class="st8" d="M153.39,17.94h1.42l-3.27,3.95l3.5,4.24h-1.42l-2.79-3.39l-2.81,3.39h-1.43l3.52-4.24l-3.27-3.95h1.43
		l2.57,3.13L153.39,17.94z"/>
	<path class="st8" d="M168.44,24.23v1.29c-0.86,0.47-1.85,0.7-2.98,0.7c-0.91,0-1.69-0.18-2.33-0.55s-1.14-0.87-1.51-1.52
		s-0.56-1.34-0.56-2.09c0-1.19,0.42-2.19,1.27-3.01s1.9-1.22,3.14-1.22c0.86,0,1.81,0.22,2.87,0.67v1.26
		c-0.96-0.55-1.89-0.82-2.81-0.82c-0.94,0-1.72,0.3-2.33,0.89s-0.93,1.33-0.93,2.22c0,0.9,0.3,1.64,0.91,2.21s1.39,0.87,2.34,0.87
		C166.53,25.14,167.5,24.83,168.44,24.23z"/>
	<path class="st8" d="M181.08,17.94h1.17v8.19h-1.17v-3.56h-4.6v3.56h-1.17v-8.19h1.17v3.54h4.6V17.94z"/>
	<path class="st8" d="M192.09,17.89h0.82l3.67,8.23h-1.2l-1.09-2.43h-3.49l-1.02,2.43h-1.2L192.09,17.89z M193.81,22.65l-1.32-2.96
		l-1.22,2.96H193.81z"/>
	<path class="st8" d="M209.41,17.94h1.11v8.19h-1.01l-5.47-6.3v6.3h-1.1v-8.19h0.95l5.52,6.36V17.94z"/>
	<path class="st8" d="M222.12,22.09h2.75v3.47c-1.01,0.44-2.01,0.66-3,0.66c-1.36,0-2.44-0.4-3.25-1.19s-1.22-1.77-1.22-2.93
		c0-1.22,0.42-2.24,1.26-3.05s1.89-1.22,3.16-1.22c0.46,0,0.9,0.05,1.31,0.15s0.94,0.28,1.57,0.55v1.2
		c-0.98-0.57-1.95-0.85-2.91-0.85c-0.89,0-1.65,0.3-2.26,0.91s-0.92,1.36-0.92,2.24c0,0.93,0.31,1.69,0.92,2.28s1.4,0.88,2.37,0.88
		c0.47,0,1.03-0.11,1.68-0.32l0.11-0.04v-1.71h-1.58V22.09z"/>
	<path class="st8" d="M232.01,17.94h4.64v1.04h-3.47v2.5h3.35v1.05h-3.35v2.54h3.58v1.04h-4.75V17.94z"/>
</g>
<g>
	<path class="st8" d="M34.09,290.57h1.76v12.12c0,1.13-0.12,1.97-0.35,2.51s-0.6,0.98-1.12,1.3s-1.14,0.49-1.86,0.49
		c-0.11,0-0.3-0.02-0.57-0.05l-0.33-1.63h0.45c0.5,0,0.89-0.06,1.16-0.18s0.48-0.34,0.63-0.65s0.23-0.97,0.23-1.98V290.57z"/>
	<path class="st8" d="M52.01,290.57h1.77v6.97c0,0.94-0.07,1.66-0.21,2.14s-0.31,0.88-0.51,1.2s-0.45,0.61-0.74,0.86
		c-0.97,0.84-2.24,1.26-3.81,1.26c-1.6,0-2.88-0.42-3.85-1.25c-0.29-0.26-0.54-0.55-0.74-0.87s-0.37-0.71-0.5-1.17
		s-0.2-1.19-0.2-2.18v-6.95h1.77v6.97c0,1.15,0.13,1.96,0.4,2.41s0.67,0.81,1.2,1.08s1.17,0.41,1.91,0.41
		c1.04,0,1.89-0.27,2.55-0.82c0.35-0.29,0.59-0.64,0.75-1.04s0.23-1.08,0.23-2.05V290.57z"/>
	<path class="st8" d="M61.11,290.57h1.76v10.68h5.53v1.6h-7.29V290.57z"/>
	<path class="st8" d="M74.85,290.57h1.76v12.28h-1.76V290.57z"/>
	<path class="st8" d="M88.15,290.5h1.24l5.51,12.35h-1.8l-1.64-3.64h-5.24l-1.53,3.64h-1.81L88.15,290.5z M90.73,297.64l-1.98-4.45
		l-1.84,4.45H90.73z"/>
	<path class="st8" d="M120.79,290.57h1.64v12.28h-1.77v-9.55l-3.77,4.75h-0.33l-3.82-4.75v9.55h-1.76v-12.28h1.66l4.08,5.04
		L120.79,290.57z"/>
	<path class="st8" d="M136,290.39c1.9,0,3.48,0.6,4.74,1.8s1.89,2.71,1.89,4.52s-0.64,3.31-1.91,4.5s-2.88,1.78-4.82,1.78
		c-1.85,0-3.39-0.59-4.62-1.78c-1.23-1.19-1.85-2.67-1.85-4.46c0-1.83,0.62-3.35,1.86-4.55S134.1,290.39,136,290.39z M136.07,292.06
		c-1.41,0-2.56,0.44-3.46,1.32c-0.9,0.88-1.36,2-1.36,3.37c0,1.32,0.45,2.43,1.36,3.3s2.04,1.32,3.41,1.32
		c1.37,0,2.51-0.45,3.43-1.34s1.37-2.01,1.37-3.35c0-1.3-0.46-2.4-1.37-3.28S137.4,292.06,136.07,292.06z"/>
	<path class="st8" d="M149.74,302.84v-12.28h3.08c1.24,0,2.23,0.31,2.96,0.92s1.09,1.45,1.09,2.5c0,0.71-0.18,1.33-0.54,1.85
		s-0.87,0.91-1.54,1.17c0.39,0.26,0.78,0.61,1.15,1.05s0.9,1.22,1.58,2.33c0.43,0.7,0.77,1.22,1.03,1.57l0.65,0.88h-2.09l-0.54-0.81
		c-0.02-0.03-0.05-0.08-0.1-0.15l-0.34-0.48l-0.54-0.9l-0.59-0.96c-0.36-0.5-0.7-0.91-1-1.2c-0.3-0.3-0.58-0.51-0.82-0.64
		s-0.65-0.2-1.23-0.2h-0.46v5.34H149.74z M152.03,292.06h-0.53v3.88h0.67c0.89,0,1.5-0.08,1.83-0.23s0.59-0.38,0.77-0.69
		s0.28-0.66,0.28-1.05c0-0.39-0.1-0.74-0.31-1.05s-0.49-0.53-0.87-0.66S152.89,292.06,152.03,292.06z"/>
	<path class="st8" d="M172.09,296.8h4.12v5.2c-1.51,0.66-3.01,0.98-4.5,0.98c-2.03,0-3.66-0.59-4.87-1.78s-1.82-2.65-1.82-4.39
		c0-1.83,0.63-3.36,1.89-4.58s2.84-1.83,4.74-1.83c0.69,0,1.35,0.07,1.97,0.22s1.41,0.42,2.36,0.82v1.79
		c-1.46-0.85-2.92-1.27-4.36-1.27c-1.34,0-2.47,0.46-3.39,1.37s-1.38,2.04-1.38,3.37c0,1.39,0.46,2.53,1.38,3.42s2.1,1.33,3.55,1.33
		c0.7,0,1.54-0.16,2.52-0.48l0.17-0.05v-2.56h-2.36V296.8z"/>
	<path class="st8" d="M187.6,290.5h1.24l5.51,12.35h-1.8l-1.64-3.64h-5.24l-1.53,3.64h-1.81L187.6,290.5z M190.18,297.64l-1.98-4.45
		l-1.84,4.45H190.18z"/>
	<path class="st8" d="M210.33,290.57H212v12.28h-1.51l-8.21-9.46v9.46h-1.65v-12.28h1.42l8.28,9.54V290.57z"/>
	<path class="st8" d="M64.56,328.44H60.4v-12.28h3.22c1.01,0,1.8,0.14,2.37,0.41s1,0.65,1.3,1.12s0.45,1.03,0.45,1.66
		c0,1.21-0.62,2.07-1.87,2.59c0.9,0.17,1.61,0.54,2.14,1.11s0.8,1.25,0.8,2.04c0,0.63-0.16,1.19-0.48,1.68s-0.8,0.89-1.42,1.2
		S65.5,328.44,64.56,328.44z M63.67,317.73h-1.51v3.69h1.17c0.94,0,1.6-0.18,2-0.54s0.59-0.82,0.59-1.39
		C65.92,318.32,65.17,317.73,63.67,317.73z M63.8,322.99h-1.64v3.89h1.73c0.96,0,1.61-0.07,1.96-0.22s0.62-0.38,0.83-0.7
		s0.31-0.66,0.31-1.02c0-0.38-0.11-0.72-0.33-1.03s-0.53-0.54-0.94-0.69S64.68,322.99,63.8,322.99z"/>
	<path class="st8" d="M79.71,316.09h1.24l5.51,12.35h-1.8l-1.64-3.64h-5.24l-1.53,3.64h-1.81L79.71,316.09z M82.3,323.24l-1.98-4.45
		l-1.84,4.45H82.3z"/>
	<path class="st8" d="M92.69,316.17h1.76v10.68h5.53v1.6h-7.29V316.17z"/>
	<path class="st8" d="M106.41,316.17h1.76v10.68h5.53v1.6h-7.29V316.17z"/>
	<path class="st8" d="M120.19,328.44v-12.28h3.08c1.24,0,2.23,0.31,2.96,0.92s1.09,1.45,1.09,2.5c0,0.71-0.18,1.33-0.54,1.85
		s-0.87,0.91-1.54,1.17c0.39,0.26,0.78,0.61,1.15,1.05s0.9,1.22,1.58,2.33c0.43,0.7,0.77,1.22,1.03,1.57l0.65,0.88h-2.09l-0.54-0.81
		c-0.02-0.03-0.05-0.08-0.11-0.15l-0.34-0.48l-0.54-0.9l-0.59-0.96c-0.36-0.5-0.7-0.91-1-1.2c-0.3-0.3-0.58-0.51-0.82-0.65
		c-0.24-0.13-0.65-0.2-1.23-0.2h-0.46v5.34H120.19z M122.47,317.66h-0.53v3.88h0.67c0.89,0,1.5-0.08,1.83-0.23s0.59-0.38,0.77-0.69
		s0.28-0.66,0.28-1.05c0-0.39-0.1-0.74-0.31-1.05s-0.49-0.54-0.87-0.66S123.33,317.66,122.47,317.66z"/>
	<path class="st8" d="M140.85,315.99c1.9,0,3.48,0.6,4.74,1.8c1.26,1.2,1.89,2.71,1.89,4.52s-0.64,3.31-1.91,4.5
		c-1.27,1.19-2.88,1.78-4.82,1.78c-1.85,0-3.39-0.59-4.62-1.78s-1.85-2.67-1.85-4.46c0-1.83,0.62-3.35,1.86-4.55
		C137.38,316.59,138.95,315.99,140.85,315.99z M140.92,317.66c-1.4,0-2.56,0.44-3.46,1.32s-1.36,2-1.36,3.37
		c0,1.32,0.45,2.43,1.36,3.3c0.91,0.88,2.04,1.32,3.41,1.32c1.37,0,2.51-0.45,3.43-1.34c0.92-0.9,1.37-2.01,1.37-3.35
		c0-1.3-0.46-2.39-1.37-3.28C143.38,318.1,142.25,317.66,140.92,317.66z"/>
	<path class="st8" d="M160.56,315.99c1.9,0,3.48,0.6,4.74,1.8s1.89,2.71,1.89,4.52s-0.64,3.31-1.91,4.5s-2.88,1.78-4.82,1.78
		c-1.85,0-3.39-0.59-4.62-1.78c-1.23-1.19-1.85-2.67-1.85-4.46c0-1.83,0.62-3.35,1.86-4.55S158.66,315.99,160.56,315.99z
		 M160.63,317.66c-1.41,0-2.56,0.44-3.46,1.32c-0.9,0.88-1.36,2-1.36,3.37c0,1.32,0.45,2.43,1.36,3.3s2.04,1.32,3.41,1.32
		c1.37,0,2.51-0.45,3.43-1.34s1.37-2.01,1.37-3.35c0-1.3-0.46-2.39-1.37-3.28S161.97,317.66,160.63,317.66z"/>
	<path class="st8" d="M184.02,316.17h1.64v12.28h-1.77v-9.55l-3.78,4.75h-0.33l-3.82-4.75v9.55h-1.76v-12.28h1.66l4.08,5.04
		L184.02,316.17z"/>
</g>
</svg>
