<?xml version="1.0" encoding="utf-8"?>
<!-- Generator: Adobe Illustrator 23.0.3, SVG Export Plug-In . SVG Version: 6.00 Build 0)  -->
<svg version="1.1" id="Capa_1" xmlns="http://www.w3.org/2000/svg" xmlns:xlink="http://www.w3.org/1999/xlink" x="0px" y="0px"
	 viewBox="0 0 396.96 550.72" style="enable-background:new 0 0 396.96 550.72;" xml:space="preserve">
<style type="text/css">
	.st0{fill:none;stroke:#FFFFFF;stroke-width:14;stroke-miterlimit:10;}
</style>
<path class="st0" d="M129.3,279.34l52.39-59.57c0,0-30.89-39.39-38.06-79.58s-2.15-50.24-2.15-50.24s25.84-5.74,59.57-5.74
	s54.55,5.74,54.55,5.74s4.31,50.96-15.79,85.41S191,255.74,131.43,310.28S15.16,453.82,15.16,453.82l55.98,20.1l32.3,52.39
	c0,0,31.58-64.59,130.62-201.67S341,109.33,290.76,57.65S181.67-9.09,128.56,39.71s-64.59,98.32-47.37,142.82
	S129.3,279.34,129.3,279.34z"/>
<path class="st0" d="M218.28,395.83l53.83-78.95c0,0,22.23,17.8,56.68,59.43s53.83,78.23,53.83,78.23l-55.26,18.66l-34.09,53.11
	C293.27,526.31,272.83,450.38,218.28,395.83z"/>
</svg>
